<svg xmlns="http://www.w3.org/2000/svg" viewBox="0 0 1274.8 834.23"><defs><style>.a{fill:#dfe6e9;}.b{fill:#2c3e50;}</style></defs><title>logo</title><path class="b" d="M332.55,421.25l-18.67,15.07v33.23a6.38,6.38,0,0,0,1.31,4.31,8.78,8.78,0,0,0,4.5,2.31v2.91H281v-2.91a9.25,9.25,0,0,0,4.54-2.36,6.28,6.28,0,0,0,1.27-4.26V364.6a6.15,6.15,0,0,0-1.27-4.18,9.42,9.42,0,0,0-4.54-2.36v-2.9h38.68v2.9a8.63,8.63,0,0,0-4.54,2.32,6.31,6.31,0,0,0-1.27,4.22V408l51-41.65c2.36-1.93,3.54-3.48,3.54-4.63q0-2.62-5.26-3.63v-2.9h50.65v2.9a15.61,15.61,0,0,0-4.54,1.45q-1.37.83-7.9,6.18l-7,5.81-42.14,33.84L400,462.83q6.63,8,9.58,10.3a15.9,15.9,0,0,0,7.4,3v2.91H368.58v-2.91q4.82-1,4.81-3.45,0-1.26-4.36-6.72Z"/><path class="b" d="M435.89,469.55V364.6a6.2,6.2,0,0,0-1.27-4.18,9.42,9.42,0,0,0-4.54-2.36v-2.9h38.67v2.9a8.63,8.63,0,0,0-4.54,2.32,6.37,6.37,0,0,0-1.27,4.22v105a6.33,6.33,0,0,0,1.32,4.31,8.74,8.74,0,0,0,4.49,2.31v2.91H430.08v-2.91a9.25,9.25,0,0,0,4.54-2.36A6.34,6.34,0,0,0,435.89,469.55Z"/><path class="b" d="M606.29,365.65l-14.8,29.18L589,393.38c.06-.61.09-1.09.09-1.46q0-3.07-5.27-6.62Q567.62,374,545.83,374a55.68,55.68,0,0,0-17,2.36,20.28,20.28,0,0,0-8.67,5.44,11.49,11.49,0,0,0-3.31,7.89q0,7,8.44,9.52,4.37,1.28,18.7,2.72l14.26,1.45a117.64,117.64,0,0,1,20.56,3.72,48.49,48.49,0,0,1,13.93,6.62,31.13,31.13,0,0,1,9.76,11.71A34.57,34.57,0,0,1,606.11,441a35.3,35.3,0,0,1-8.45,23.22Q590,473.46,574,477.9a94.79,94.79,0,0,1-25.69,3.36q-24.6,0-48.57-11.81-5.08-2.35-6.08-2.36c-.79,0-2,.67-3.73,2l-2.63-1.36,13.44-30.41,2.63,1.27v1.18q0,4.08,3.91,7.53,5.89,5.26,18.24,9.08a79.49,79.49,0,0,0,23.42,3.81q12.08,0,20.61-4.07a20,20,0,0,0,7.54-6,13,13,0,0,0,2.81-7.84q0-6.15-6.63-8.79-4.62-1.8-18.7-3.35l-14-1.45a191.85,191.85,0,0,1-19.88-2.77,51.78,51.78,0,0,1-11.62-4.22,30.18,30.18,0,0,1-13-12.27,33,33,0,0,1-4.27-16.9q0-15.72,10.8-26Q516.78,353,545.1,353a96.51,96.51,0,0,1,22.15,2.42,168.07,168.07,0,0,1,25.6,8.88q5.26,2.1,6.45,2.1,1.91,0,4.45-2.1Z"/><path class="b" d="M729.21,425H657.76v44.67a6.19,6.19,0,0,0,1.32,4.22,8.74,8.74,0,0,0,4.49,2.31v2.91H624.9v-2.91a9.25,9.25,0,0,0,4.54-2.36,6.13,6.13,0,0,0,1.27-4.17v-105a6.15,6.15,0,0,0-1.27-4.18,9.42,9.42,0,0,0-4.54-2.36v-2.9h38.67v2.9a8.67,8.67,0,0,0-4.54,2.32,6.37,6.37,0,0,0-1.27,4.22v39.94h71.45V364.6a6.31,6.31,0,0,0-1.27-4.22,8.63,8.63,0,0,0-4.54-2.32v-2.9h38.67v2.9a9.37,9.37,0,0,0-4.53,2.36,6.15,6.15,0,0,0-1.28,4.18v105a6.14,6.14,0,0,0,1.28,4.17,9.21,9.21,0,0,0,4.53,2.36v2.91H723.4v-2.91a8.7,8.7,0,0,0,4.49-2.31,6.19,6.19,0,0,0,1.32-4.22Z"/><path class="b" d="M976.32,428.51v41.13a6.19,6.19,0,0,0,1.32,4.22,8.74,8.74,0,0,0,4.49,2.31v2.91H943.46v-2.91a9.25,9.25,0,0,0,4.54-2.36,6.19,6.19,0,0,0,1.27-4.17V364.69a6.35,6.35,0,0,0-1.27-4.27,9.42,9.42,0,0,0-4.54-2.36v-2.9H1021q14.16,0,22.47,1.63a40.06,40.06,0,0,1,14.48,5.72,28.86,28.86,0,0,1,10.71,12.8A41.85,41.85,0,0,1,1072,392q0,30.32-33.68,35.49l24.05,34.23q6.36,9,9.31,11.57a11.71,11.71,0,0,0,7.22,2.86v2.91h-44.77v-2.91q4.62-.72,4.62-3.27,0-1.63-4.26-7.9l-25.1-36.49Zm0-20.43h41.76a107.55,107.55,0,0,0,13.08-.54,20.59,20.59,0,0,0,7-2.27q6.88-3.72,6.89-13.44t-6.89-13.43a19.82,19.82,0,0,0-7-2.32,114.93,114.93,0,0,0-13.12-.5H976.32Z"/><path class="b" d="M838.55,470.37a19.23,19.23,0,0,0,7-2.25,5.62,5.62,0,0,0,2.25-2.45A2.94,2.94,0,0,0,848,465a.91.91,0,0,0-.09-.51,2.84,2.84,0,0,0-1-1,15.42,15.42,0,0,0-3.3-1.42c-1.18-.37-2.39-.69-3.62-1-2.45-.58-5-1.06-7.45-1.58a41.93,41.93,0,0,1-7.6-2,7.07,7.07,0,0,1-1-.54,3,3,0,0,1-1-1.1,1.93,1.93,0,0,1-.21-1.08,2.21,2.21,0,0,1,.33-.93,3.88,3.88,0,0,1,1-1,15.84,15.84,0,0,1,3.73-1.86,20.09,20.09,0,0,1,8-1.16,32.45,32.45,0,0,1,7.79,1.38c1.12.32,2.21.66,3.29,1L844,449.93c-1-.8-2-1.65-2.94-2.54a8.93,8.93,0,0,1-2.51-3.24,4.14,4.14,0,0,1-.18-2.18,5.15,5.15,0,0,1,.86-1.92,10.83,10.83,0,0,1,2.91-2.67,28,28,0,0,1,6.22-3,.47.47,0,0,1-.18-.3l0-.43a3.47,3.47,0,0,1,.54-2.3l1.35-2.06-.66-5.48a28.53,28.53,0,0,1,4.48-19.07l27.57-43a23.59,23.59,0,0,1,3.1-3.87c-1.46-.67-2.94-1.31-4.49-1.91q-36.06-13.45-62.15,8.72A72.14,72.14,0,0,0,797.29,394a74.28,74.28,0,0,0-5.15,24.57,63.37,63.37,0,0,0,4.48,26.34,55.32,55.32,0,0,0,20.87,25.44A113.07,113.07,0,0,0,831,471,56,56,0,0,0,838.55,470.37Z"/><path class="b" d="M916.11,389.24a54.17,54.17,0,0,0-12.27-18.38l-30.06,46.93a28.5,28.5,0,0,1-15.87,11.73l-5.71,1.66L851,433a3.43,3.43,0,0,1-1.92,1.42l-.41.12a.46.46,0,0,1-.31,0,30.09,30.09,0,0,0-5.92,3.46,10.85,10.85,0,0,0-2.52,2.64,3.32,3.32,0,0,0-.36,3.16,6.86,6.86,0,0,0,2.36,2.55c1,.76,2,1.46,3.08,2.19l3.17,2.15c.53.36,1,.74,1.58,1.15a9.3,9.3,0,0,1,.8.66,4.18,4.18,0,0,1,.43.42,2.41,2.41,0,0,1,.24.32,1.42,1.42,0,0,1,.28.78,1.3,1.3,0,0,1-.31.92,1.49,1.49,0,0,1-.59.41,2,2,0,0,1-.61.1,4.22,4.22,0,0,1-.67,0c-.39-.06-.72-.13-1.06-.21-.65-.15-1.27-.32-1.89-.51-1.23-.36-2.44-.73-3.65-1.06a35.87,35.87,0,0,0-7.24-1.29,19.44,19.44,0,0,0-7.08.89,13,13,0,0,0-3.14,1.45,1.79,1.79,0,0,0-.31.28.85.85,0,0,0,.17.14,5.17,5.17,0,0,0,.67.37,22.51,22.51,0,0,0,3.45,1.15c1.2.32,2.43.62,3.67.91,2.48.57,5,1.12,7.47,1.78,1.25.33,2.49.68,3.73,1.12a15.55,15.55,0,0,1,3.65,1.73,4.31,4.31,0,0,1,1.56,1.74,2.58,2.58,0,0,1,.17,1.35,4.12,4.12,0,0,1-.37,1.11,7,7,0,0,1-2.91,3,19.8,19.8,0,0,1-7.55,2.17,55.29,55.29,0,0,1-7.71.3,101.88,101.88,0,0,1-13.29-1.3,76.29,76.29,0,0,0,14.84,7.62q35.55,13.86,62.33-8.75a70,70,0,0,0,20.31-28.51Q926,413.18,916.11,389.24Z"/><path class="a" d="M838.7,471.48a19.8,19.8,0,0,0,7.55-2.17,7,7,0,0,0,2.91-3,4.12,4.12,0,0,0,.37-1.11,2.58,2.58,0,0,0-.17-1.35,4.31,4.31,0,0,0-1.56-1.74,15.55,15.55,0,0,0-3.65-1.73c-1.24-.44-2.48-.79-3.73-1.12-2.49-.66-5-1.21-7.47-1.78-1.24-.29-2.47-.59-3.67-.91a22.51,22.51,0,0,1-3.45-1.15,5.17,5.17,0,0,1-.67-.37.85.85,0,0,1-.17-.14,1.79,1.79,0,0,1,.31-.28,13,13,0,0,1,3.14-1.45,19.44,19.44,0,0,1,7.08-.89,35.87,35.87,0,0,1,7.24,1.29c1.21.33,2.42.7,3.65,1.06.62.19,1.24.36,1.89.51.34.08.67.15,1.06.21a4.22,4.22,0,0,0,.67,0,2,2,0,0,0,.61-.1,1.49,1.49,0,0,0,.59-.41,1.3,1.3,0,0,0,.31-.92,1.42,1.42,0,0,0-.28-.78,2.41,2.41,0,0,0-.24-.32,4.18,4.18,0,0,0-.43-.42,9.3,9.3,0,0,0-.8-.66c-.53-.41-1-.79-1.58-1.15L845,448.46c-1-.73-2.09-1.43-3.08-2.19a6.86,6.86,0,0,1-2.36-2.55,3.32,3.32,0,0,1,.36-3.16,10.85,10.85,0,0,1,2.52-2.64,30.09,30.09,0,0,1,5.92-3.46.46.46,0,0,0,.31,0l.41-.12A3.43,3.43,0,0,0,851,433l1.16-1.77,5.71-1.66a28.5,28.5,0,0,0,15.87-11.73l30.06-46.93a66.41,66.41,0,0,0-19.38-13,23.59,23.59,0,0,0-3.1,3.87l-27.57,43a28.53,28.53,0,0,0-4.48,19.07l.66,5.48-1.35,2.06a3.47,3.47,0,0,0-.54,2.3l0,.43a.47.47,0,0,0,.18.3,28,28,0,0,0-6.22,3,10.83,10.83,0,0,0-2.91,2.67,5.15,5.15,0,0,0-.86,1.92,4.14,4.14,0,0,0,.18,2.18,8.93,8.93,0,0,0,2.51,3.24c1,.89,1.93,1.74,2.94,2.54l2.77,2.21c-1.08-.34-2.17-.68-3.29-1a32.45,32.45,0,0,0-7.79-1.38,20.09,20.09,0,0,0-8,1.16,15.84,15.84,0,0,0-3.73,1.86,3.88,3.88,0,0,0-1,1,2.21,2.21,0,0,0-.33.93,1.93,1.93,0,0,0,.21,1.08,3,3,0,0,0,1,1.1,7.07,7.07,0,0,0,1,.54,41.93,41.93,0,0,0,7.6,2c2.5.52,5,1,7.45,1.58,1.23.29,2.44.61,3.62,1a15.42,15.42,0,0,1,3.3,1.42,2.84,2.84,0,0,1,1,1,.91.91,0,0,1,.09.51,2.94,2.94,0,0,1-.22.71,5.62,5.62,0,0,1-2.25,2.45,19.23,19.23,0,0,1-7,2.25,56,56,0,0,1-7.56.6,113.07,113.07,0,0,1-13.5-.63l.21.14a101.88,101.88,0,0,0,13.29,1.3A55.29,55.29,0,0,0,838.7,471.48Z"/></svg>